<?xml version="1.0" encoding="UTF-8"?>
<!DOCTYPE svg PUBLIC "-//W3C//DTD SVG 1.1//EN" "http://www.w3.org/Graphics/SVG/1.1/DTD/svg11.dtd">
<svg xmlns="http://www.w3.org/2000/svg" version="1.1" width="174px" height="174px" style="shape-rendering:geometricPrecision; text-rendering:geometricPrecision; image-rendering:optimizeQuality; fill-rule:evenodd; clip-rule:evenodd" xmlns:xlink="http://www.w3.org/1999/xlink">
<g><path style="opacity:1" fill="#979893" d="M -0.5,-0.5 C 6.5,-0.5 13.5,-0.5 20.5,-0.5C 18.3878,2.06263 15.7212,3.89597 12.5,5C 8.15308,8.337 4.98642,12.5037 3,17.5C 2.18405,18.8228 1.01739,19.4894 -0.5,19.5C -0.5,12.8333 -0.5,6.16667 -0.5,-0.5 Z"/></g>
<g><path style="opacity:1" fill="#2d7dfc" d="M 45.5,-0.5 C 54.8333,-0.5 64.1667,-0.5 73.5,-0.5C 73.6715,1.49181 73.0049,3.15848 71.5,4.5C 66.7541,7.79788 62.0875,10.4645 57.5,12.5C 56.4132,15.3664 55.0798,18.3664 53.5,21.5C 51.5082,21.3285 49.8415,21.9951 48.5,23.5C 47.5713,22.3112 47.238,20.9778 47.5,19.5C 43.6096,19.5547 41.4429,21.5547 41,25.5C 36.061,27.2712 32.561,30.6045 30.5,35.5C 24.9705,37.6941 21.6371,41.6941 20.5,47.5C 18.4565,49.208 16.7899,51.208 15.5,53.5C 16.0253,54.1924 16.6919,54.6924 17.5,55C 17.1667,55.3333 16.8333,55.6667 16.5,56C 13.3996,56.8734 10.3996,58.04 7.5,59.5C 6.16667,58.8333 4.83333,58.1667 3.5,57.5C 2.13307,58.2255 0.79974,58.8921 -0.5,59.5C -0.5,49.5 -0.5,39.5 -0.5,29.5C 1.19981,29.6261 2.69981,30.2927 4,31.5C 5.5866,30.3301 7.25327,29.3301 9,28.5C 9.48278,29.448 9.64945,30.448 9.5,31.5C 11.1992,31.6602 12.8659,31.4935 14.5,31C 11.4973,28.3912 9.99725,25.2246 10,21.5C 11.2682,21.6158 12.6015,21.9491 14,22.5C 19.3684,22.0375 24.5351,20.7041 29.5,18.5C 30.7952,16.6721 31.7952,14.6721 32.5,12.5C 34.5405,11.7643 36.5405,10.9309 38.5,10C 40.0368,8.89037 40.7035,7.39037 40.5,5.5C 39.448,5.64945 38.448,5.48278 37.5,5C 39.8782,4.4888 42.2115,3.82214 44.5,3C 45.3366,1.98873 45.67,0.822066 45.5,-0.5 Z"/></g>
<g><path style="opacity:1" fill="#397bfd" d="M 73.5,-0.5 C 76.1667,-0.5 78.8333,-0.5 81.5,-0.5C 81.5,0.833333 81.5,2.16667 81.5,3.5C 78.7743,3.26386 76.441,4.09719 74.5,6C 72.4088,8.75945 70.7421,11.7595 69.5,15C 67.5273,15.4955 65.5273,15.6621 63.5,15.5C 63.5,18.1667 63.5,20.8333 63.5,23.5C 59.1853,24.3062 56.1853,26.8062 54.5,31C 52.7536,31.4709 51.087,32.1376 49.5,33C 45.3383,39.8358 39.6716,44.8358 32.5,48C 31.8971,49.8254 31.2304,51.6587 30.5,53.5C 23.9291,58.3854 18.9291,64.3854 15.5,71.5C 8.11513,71.8905 4.44846,75.8905 4.5,83.5C 3.15848,85.0049 1.49181,85.6715 -0.5,85.5C -0.5,76.8333 -0.5,68.1667 -0.5,59.5C 0.79974,58.8921 2.13307,58.2255 3.5,57.5C 4.83333,58.1667 6.16667,58.8333 7.5,59.5C 10.3996,58.04 13.3996,56.8734 16.5,56C 16.8333,55.6667 17.1667,55.3333 17.5,55C 16.6919,54.6924 16.0253,54.1924 15.5,53.5C 16.7899,51.208 18.4565,49.208 20.5,47.5C 21.6371,41.6941 24.9705,37.6941 30.5,35.5C 32.561,30.6045 36.061,27.2712 41,25.5C 41.4429,21.5547 43.6096,19.5547 47.5,19.5C 47.238,20.9778 47.5713,22.3112 48.5,23.5C 49.8415,21.9951 51.5082,21.3285 53.5,21.5C 55.0798,18.3664 56.4132,15.3664 57.5,12.5C 62.0875,10.4645 66.7541,7.79788 71.5,4.5C 73.0049,3.15848 73.6715,1.49181 73.5,-0.5 Z"/></g>
<g><path style="opacity:1" fill="#4579fb" d="M 81.5,-0.5 C 89.5,-0.5 97.5,-0.5 105.5,-0.5C 105.279,0.734849 104.612,1.73485 103.5,2.5C 100.94,3.74746 98.2732,4.74746 95.5,5.5C 93.9068,6.83042 92.2402,8.16375 90.5,9.5C 89.7022,11.0777 89.2022,12.7444 89,14.5C 85.3094,15.6748 84.8094,17.5081 87.5,20C 86.1667,21.3333 84.8333,22.6667 83.5,24C 78.4821,25.2266 73.8155,27.2266 69.5,30C 76.1583,30.4996 82.825,30.6663 89.5,30.5C 94.8332,30.0016 96.1665,31.8349 93.5,36C 94.0556,37.0111 94.7222,37.8444 95.5,38.5C 94.5,38.5 93.5,38.5 92.5,38.5C 92.3356,35.0144 90.669,32.681 87.5,31.5C 80.4921,31.3337 73.4921,31.5004 66.5,32C 69.1436,34.4415 68.8103,36.6081 65.5,38.5C 64.5481,40.0453 64.2148,41.712 64.5,43.5C 64.3404,45.153 63.6737,46.4863 62.5,47.5C 60.4413,49.2604 59.108,51.5938 58.5,54.5C 58.5,54.8333 58.5,55.1667 58.5,55.5C 57.5,55.5 56.5,55.5 55.5,55.5C 55.7375,58.2116 55.7375,60.7116 55.5,63C 48.6643,64.0669 41.831,64.9002 35,65.5C 32.4787,69.8832 29.9787,74.2165 27.5,78.5C 27.7145,82.2291 29.3812,84.8958 32.5,86.5C 34.588,88.3356 35.9213,90.6689 36.5,93.5C 36.5172,95.5648 36.8505,97.5648 37.5,99.5C 35.1511,98.0426 32.8178,96.7092 30.5,95.5C 33.421,89.6876 31.5877,88.0209 25,90.5C 23.6693,89.0042 22.1693,87.6709 20.5,86.5C 19.1667,87.1667 17.8333,87.8333 16.5,88.5C 12.8679,93.1337 8.86793,97.467 4.5,101.5C 3.15017,102.95 1.4835,103.617 -0.5,103.5C -0.5,97.5 -0.5,91.5 -0.5,85.5C 1.49181,85.6715 3.15848,85.0049 4.5,83.5C 4.44846,75.8905 8.11513,71.8905 15.5,71.5C 18.9291,64.3854 23.9291,58.3854 30.5,53.5C 31.2304,51.6587 31.8971,49.8254 32.5,48C 39.6716,44.8358 45.3383,39.8358 49.5,33C 51.087,32.1376 52.7536,31.4709 54.5,31C 56.1853,26.8062 59.1853,24.3062 63.5,23.5C 63.5,20.8333 63.5,18.1667 63.5,15.5C 65.5273,15.6621 67.5273,15.4955 69.5,15C 70.7421,11.7595 72.4088,8.75945 74.5,6C 76.441,4.09719 78.7743,3.26386 81.5,3.5C 81.5,2.16667 81.5,0.833333 81.5,-0.5 Z"/></g>
<g><path style="opacity:1" fill="#5d75fc" d="M 127.5,-0.5 C 130.833,-0.5 134.167,-0.5 137.5,-0.5C 141.793,1.74377 146.46,3.0771 151.5,3.5C 152.306,4.72813 153.306,5.72813 154.5,6.5C 150.981,4.87833 147.648,5.21167 144.5,7.5C 143.109,3.74563 140.443,2.57896 136.5,4C 137.458,5.14748 137.125,6.14748 135.5,7C 137.101,7.27338 138.601,7.77338 140,8.5C 140.914,7.34633 141.747,7.51299 142.5,9C 140.5,9.33333 138.5,9.66667 136.5,10C 135.939,11.676 134.939,13.0094 133.5,14C 136.5,14.3333 139.5,14.6667 142.5,15C 137.306,15.131 132.306,16.131 127.5,18C 127.201,19.3204 127.034,20.8204 127,22.5C 126.167,23.3333 125.333,24.1667 124.5,25C 115.217,26.5399 110.884,31.7066 111.5,40.5C 106.654,42.0392 101.654,42.7059 96.5,42.5C 96.7678,40.901 96.4345,39.5676 95.5,38.5C 94.7222,37.8444 94.0556,37.0111 93.5,36C 96.1665,31.8349 94.8332,30.0016 89.5,30.5C 92.8974,29.4734 95.7307,27.4734 98,24.5C 98.6667,27.1667 99.3333,27.1667 100,24.5C 100.333,25.1667 100.667,25.8333 101,26.5C 102.465,24.085 104.632,23.085 107.5,23.5C 107.682,21.4086 107.348,19.4086 106.5,17.5C 107.833,16.5 109.167,15.5 110.5,14.5C 112.003,15.0522 113.669,15.0522 115.5,14.5C 114.455,8.19225 117.122,5.02558 123.5,5C 124.721,2.96634 126.055,1.133 127.5,-0.5 Z"/></g>
<g><path style="opacity:1" fill="#979793" d="M 149.5,-0.5 C 157.5,-0.5 165.5,-0.5 173.5,-0.5C 173.5,5.16667 173.5,10.8333 173.5,16.5C 172.391,16.4431 171.391,16.1098 170.5,15.5C 168.833,11.8333 166.167,9.16667 162.5,7.5C 162.047,6.54163 161.381,5.7083 160.5,5C 156.646,3.25583 152.979,1.4225 149.5,-0.5 Z"/></g>
<g><path style="opacity:1" fill="#6d7ddc" d="M 137.5,-0.5 C 139.5,-0.5 141.5,-0.5 143.5,-0.5C 145.988,1.12823 148.655,2.46156 151.5,3.5C 146.46,3.0771 141.793,1.74377 137.5,-0.5 Z"/></g>
<g><path style="opacity:1" fill="#8d90bd" d="M 143.5,-0.5 C 145.5,-0.5 147.5,-0.5 149.5,-0.5C 152.979,1.4225 156.646,3.25583 160.5,5C 161.381,5.7083 162.047,6.54163 162.5,7.5C 159.008,5.77954 155.341,4.4462 151.5,3.5C 148.655,2.46156 145.988,1.12823 143.5,-0.5 Z"/></g>
<g><path style="opacity:1" fill="#6a73fb" d="M 154.5,6.5 C 155.287,8.10422 156.62,8.77089 158.5,8.5C 158.5,9.5 158.5,10.5 158.5,11.5C 157.5,11.5 156.5,11.5 155.5,11.5C 155.723,14.1142 154.556,15.7809 152,16.5C 150.333,20.1667 147.667,22.8333 144,24.5C 143.814,26.9005 143.314,29.2338 142.5,31.5C 141.158,33.0049 139.492,33.6715 137.5,33.5C 136.768,37.7785 134.435,40.9451 130.5,43C 131.167,43.3333 131.833,43.6667 132.5,44C 130.935,45.4119 129.269,46.5786 127.5,47.5C 127.5,47.1667 127.5,46.8333 127.5,46.5C 117.219,44.5238 106.552,43.8572 95.5,44.5C 95.5,42.5 95.5,40.5 95.5,38.5C 96.4345,39.5676 96.7678,40.901 96.5,42.5C 101.654,42.7059 106.654,42.0392 111.5,40.5C 110.884,31.7066 115.217,26.5399 124.5,25C 125.333,24.1667 126.167,23.3333 127,22.5C 127.034,20.8204 127.201,19.3204 127.5,18C 132.306,16.131 137.306,15.131 142.5,15C 139.5,14.6667 136.5,14.3333 133.5,14C 134.939,13.0094 135.939,11.676 136.5,10C 138.5,9.66667 140.5,9.33333 142.5,9C 141.747,7.51299 140.914,7.34633 140,8.5C 138.601,7.77338 137.101,7.27338 135.5,7C 137.125,6.14748 137.458,5.14748 136.5,4C 140.443,2.57896 143.109,3.74563 144.5,7.5C 147.648,5.21167 150.981,4.87833 154.5,6.5 Z"/></g>
<g><path style="opacity:1" fill="#8597b4" d="M 20.5,-0.5 C 23.5,-0.5 26.5,-0.5 29.5,-0.5C 25.3444,1.61198 21.011,3.44532 16.5,5C 12.9055,8.04976 9.4055,11.2164 6,14.5C 4.35716,17.9614 2.1905,20.9614 -0.5,23.5C -0.5,22.1667 -0.5,20.8333 -0.5,19.5C 1.01739,19.4894 2.18405,18.8228 3,17.5C 4.98642,12.5037 8.15308,8.337 12.5,5C 15.7212,3.89597 18.3878,2.06263 20.5,-0.5 Z"/></g>
<g><path style="opacity:1" fill="#307fe9" d="M 31.5,-0.5 C 34.8333,-0.5 38.1667,-0.5 41.5,-0.5C 40.8836,1.41714 39.5503,2.5838 37.5,3C 32.7492,3.18866 28.0826,3.85533 23.5,5C 22.8333,6.33333 22.1667,7.66667 21.5,9C 18.5177,9.09708 15.8511,9.93041 13.5,11.5C 13.8588,9.62901 14.8588,8.12901 16.5,7C 20.7251,4.58914 25.2251,2.7558 30,1.5C 31.0299,1.16389 31.5299,0.497222 31.5,-0.5 Z"/></g>
<g><path style="opacity:1" fill="#918fb3" d="M 162.5,7.5 C 166.167,9.16667 168.833,11.8333 170.5,15.5C 167.5,13.1667 164.833,10.5 162.5,7.5 Z"/></g>
<g><path style="opacity:1" fill="#247ef9" d="M 41.5,-0.5 C 42.8333,-0.5 44.1667,-0.5 45.5,-0.5C 45.67,0.822066 45.3366,1.98873 44.5,3C 42.2115,3.82214 39.8782,4.4888 37.5,5C 38.448,5.48278 39.448,5.64945 40.5,5.5C 40.7035,7.39037 40.0368,8.89037 38.5,10C 36.5405,10.9309 34.5405,11.7643 32.5,12.5C 31.7952,14.6721 30.7952,16.6721 29.5,18.5C 24.5351,20.7041 19.3684,22.0375 14,22.5C 12.6015,21.9491 11.2682,21.6158 10,21.5C 9.99725,25.2246 11.4973,28.3912 14.5,31C 12.8659,31.4935 11.1992,31.6602 9.5,31.5C 9.64945,30.448 9.48278,29.448 9,28.5C 7.25327,29.3301 5.5866,30.3301 4,31.5C 2.69981,30.2927 1.19981,29.6261 -0.5,29.5C -0.5,28.8333 -0.5,28.1667 -0.5,27.5C 2.83705,26.516 4.33705,24.1827 4,20.5C 7.03594,17.2956 10.2026,14.2956 13.5,11.5C 15.8511,9.93041 18.5177,9.09708 21.5,9C 22.1667,7.66667 22.8333,6.33333 23.5,5C 28.0826,3.85533 32.7492,3.18866 37.5,3C 39.5503,2.5838 40.8836,1.41714 41.5,-0.5 Z"/></g>
<g><path style="opacity:1" fill="#7871f9" d="M 154.5,6.5 C 162.017,8.8276 167.684,13.6609 171.5,21C 172.094,21.4643 172.761,21.631 173.5,21.5C 173.5,22.8333 173.5,24.1667 173.5,25.5C 170.146,24.0351 168.313,21.3685 168,17.5C 166.989,16.6634 165.822,16.33 164.5,16.5C 164.662,18.5273 164.495,20.5273 164,22.5C 163.586,22.9574 163.086,23.2907 162.5,23.5C 161.526,21.2573 161.192,18.924 161.5,16.5C 160.448,16.3505 159.448,16.5172 158.5,17C 159.747,18.4936 159.747,19.9936 158.5,21.5C 154.645,24.5016 151.145,27.8349 148,31.5C 147.51,32.7932 147.343,34.1266 147.5,35.5C 143.527,36.0755 142.527,38.2421 144.5,42C 143.773,43.3988 143.273,44.8988 143,46.5C 140.332,49.0228 138.499,52.0228 137.5,55.5C 138.392,57.6648 138.059,59.8314 136.5,62C 136.646,63.7271 137.313,63.8938 138.5,62.5C 139.452,64.0453 139.785,65.712 139.5,67.5C 138.5,67.5 137.5,67.5 136.5,67.5C 136.203,73.4918 134.87,73.8251 132.5,68.5C 129.881,70.5768 129.881,72.7435 132.5,75C 130.853,76.3141 129.186,76.1475 127.5,74.5C 127.5,74.1667 127.5,73.8333 127.5,73.5C 128.985,69.8239 131.152,66.4905 134,63.5C 134.498,60.5184 134.665,57.5184 134.5,54.5C 133.5,54.5 132.5,54.5 131.5,54.5C 130.167,52.1667 128.833,49.8333 127.5,47.5C 129.269,46.5786 130.935,45.4119 132.5,44C 131.833,43.6667 131.167,43.3333 130.5,43C 134.435,40.9451 136.768,37.7785 137.5,33.5C 139.492,33.6715 141.158,33.0049 142.5,31.5C 143.314,29.2338 143.814,26.9005 144,24.5C 147.667,22.8333 150.333,20.1667 152,16.5C 154.556,15.7809 155.723,14.1142 155.5,11.5C 156.5,11.5 157.5,11.5 158.5,11.5C 158.5,10.5 158.5,9.5 158.5,8.5C 156.62,8.77089 155.287,8.10422 154.5,6.5 Z"/></g>
<g><path style="opacity:1" fill="#4780d4" d="M 29.5,-0.5 C 30.1667,-0.5 30.8333,-0.5 31.5,-0.5C 31.5299,0.497222 31.0299,1.16389 30,1.5C 25.2251,2.7558 20.7251,4.58914 16.5,7C 14.8588,8.12901 13.8588,9.62901 13.5,11.5C 10.2026,14.2956 7.03594,17.2956 4,20.5C 4.33705,24.1827 2.83705,26.516 -0.5,27.5C -0.5,26.1667 -0.5,24.8333 -0.5,23.5C 2.1905,20.9614 4.35716,17.9614 6,14.5C 9.4055,11.2164 12.9055,8.04976 16.5,5C 21.011,3.44532 25.3444,1.61198 29.5,-0.5 Z"/></g>
<g><path style="opacity:1" fill="#5277fc" d="M 105.5,-0.5 C 112.833,-0.5 120.167,-0.5 127.5,-0.5C 126.055,1.133 124.721,2.96634 123.5,5C 117.122,5.02558 114.455,8.19225 115.5,14.5C 113.669,15.0522 112.003,15.0522 110.5,14.5C 109.167,15.5 107.833,16.5 106.5,17.5C 107.348,19.4086 107.682,21.4086 107.5,23.5C 104.632,23.085 102.465,24.085 101,26.5C 100.667,25.8333 100.333,25.1667 100,24.5C 99.3333,27.1667 98.6667,27.1667 98,24.5C 95.7307,27.4734 92.8974,29.4734 89.5,30.5C 82.825,30.6663 76.1583,30.4996 69.5,30C 73.8155,27.2266 78.4821,25.2266 83.5,24C 84.8333,22.6667 86.1667,21.3333 87.5,20C 84.8094,17.5081 85.3094,15.6748 89,14.5C 89.2022,12.7444 89.7022,11.0777 90.5,9.5C 92.2402,8.16375 93.9068,6.83042 95.5,5.5C 98.2732,4.74746 100.94,3.74746 103.5,2.5C 104.612,1.73485 105.279,0.734849 105.5,-0.5 Z"/></g>
<g><path style="opacity:1" fill="#8e8db8" d="M 170.5,15.5 C 171.391,16.1098 172.391,16.4431 173.5,16.5C 173.5,17.5 173.5,18.5 173.5,19.5C 171.088,19.3059 170.088,17.9726 170.5,15.5 Z"/></g>
<g><path style="opacity:1" fill="#807ad4" d="M 151.5,3.5 C 155.341,4.4462 159.008,5.77954 162.5,7.5C 164.833,10.5 167.5,13.1667 170.5,15.5C 170.088,17.9726 171.088,19.3059 173.5,19.5C 173.5,20.1667 173.5,20.8333 173.5,21.5C 172.761,21.631 172.094,21.4643 171.5,21C 167.684,13.6609 162.017,8.8276 154.5,6.5C 153.306,5.72813 152.306,4.72813 151.5,3.5 Z"/></g>
<g><path style="opacity:1" fill="#6a87dd" d="M 87.5,31.5 C 87.5,31.8333 87.5,32.1667 87.5,32.5C 82.1254,32.1718 76.7921,32.5052 71.5,33.5C 69.1444,36.8998 66.8111,40.2331 64.5,43.5C 64.2148,41.712 64.5481,40.0453 65.5,38.5C 68.8103,36.6081 69.1436,34.4415 66.5,32C 73.4921,31.5004 80.4921,31.3337 87.5,31.5 Z"/></g>
<g><path style="opacity:1" fill="#e7f4fd" d="M 87.5,32.5 C 90.1667,36.5 92.8333,40.5 95.5,44.5C 106.068,45.1879 116.735,45.8546 127.5,46.5C 127.5,46.8333 127.5,47.1667 127.5,47.5C 116.48,47.8321 105.48,47.4988 94.5,46.5C 90.8997,45.6295 89.5664,43.6295 90.5,40.5C 89.018,38.5171 87.3513,36.6837 85.5,35C 80.7709,34.674 76.1043,35.174 71.5,36.5C 69.6228,43.2578 66.4561,49.2578 62,54.5C 60.6222,60.4383 61.7889,65.7717 65.5,70.5C 81.3281,71.1667 96.9948,71.8333 112.5,72.5C 96.1667,72.5 79.8333,72.5 63.5,72.5C 61.4263,67.9096 59.093,63.4096 56.5,59C 57.305,57.8873 57.9717,56.7206 58.5,55.5C 58.5,55.1667 58.5,54.8333 58.5,54.5C 60.588,52.6644 61.9213,50.3311 62.5,47.5C 63.6737,46.4863 64.3404,45.153 64.5,43.5C 66.8111,40.2331 69.1444,36.8998 71.5,33.5C 76.7921,32.5052 82.1254,32.1718 87.5,32.5 Z"/></g>
<g><path style="opacity:1" fill="#fcfdfd" d="M 127.5,47.5 C 128.833,49.8333 130.167,52.1667 131.5,54.5C 132.431,56.0332 133.098,57.6998 133.5,59.5C 131.492,63.5168 129.492,67.5168 127.5,71.5C 122.595,72.4454 117.595,72.7787 112.5,72.5C 96.9948,71.8333 81.3281,71.1667 65.5,70.5C 61.7889,65.7717 60.6222,60.4383 62,54.5C 66.4561,49.2578 69.6228,43.2578 71.5,36.5C 76.1043,35.174 80.7709,34.674 85.5,35C 87.3513,36.6837 89.018,38.5171 90.5,40.5C 89.5664,43.6295 90.8997,45.6295 94.5,46.5C 105.48,47.4988 116.48,47.8321 127.5,47.5 Z"/></g>
<g><path style="opacity:1" fill="#657ade" d="M 87.5,32.5 C 87.5,32.1667 87.5,31.8333 87.5,31.5C 90.669,32.681 92.3356,35.0144 92.5,38.5C 93.5,38.5 94.5,38.5 95.5,38.5C 95.5,40.5 95.5,42.5 95.5,44.5C 92.8333,40.5 90.1667,36.5 87.5,32.5 Z"/></g>
<g><path style="opacity:1" fill="#7d70fd" d="M 173.5,25.5 C 173.5,26.1667 173.5,26.8333 173.5,27.5C 169.454,32.2112 164.954,36.5445 160,40.5C 159.517,41.448 159.351,42.448 159.5,43.5C 156.886,43.2771 155.219,44.4438 154.5,47C 153.128,47.4017 151.795,47.9017 150.5,48.5C 149.119,51.3822 146.952,53.3822 144,54.5C 143.781,55.938 143.281,57.2713 142.5,58.5C 140.64,57.7401 138.973,56.7401 137.5,55.5C 138.499,52.0228 140.332,49.0228 143,46.5C 143.273,44.8988 143.773,43.3988 144.5,42C 142.527,38.2421 143.527,36.0755 147.5,35.5C 147.343,34.1266 147.51,32.7932 148,31.5C 151.145,27.8349 154.645,24.5016 158.5,21.5C 159.747,19.9936 159.747,18.4936 158.5,17C 159.448,16.5172 160.448,16.3505 161.5,16.5C 161.192,18.924 161.526,21.2573 162.5,23.5C 163.086,23.2907 163.586,22.9574 164,22.5C 164.495,20.5273 164.662,18.5273 164.5,16.5C 165.822,16.33 166.989,16.6634 168,17.5C 168.313,21.3685 170.146,24.0351 173.5,25.5 Z"/></g>
<g><path style="opacity:1" fill="#896efc" d="M 173.5,27.5 C 173.5,36.1667 173.5,44.8333 173.5,53.5C 170.167,54.8333 166.833,56.1667 163.5,57.5C 163.762,58.9778 163.429,60.3112 162.5,61.5C 160.298,63.4114 158.631,65.7447 157.5,68.5C 154.473,70.8605 151.806,73.5271 149.5,76.5C 148.167,77.1667 146.833,77.8333 145.5,78.5C 143.116,81.8694 140.783,85.2027 138.5,88.5C 135.648,86.4103 134.481,83.7436 135,80.5C 134.586,80.9574 134.086,81.2907 133.5,81.5C 132.735,80.3881 131.735,79.7214 130.5,79.5C 129.791,78.596 128.791,78.2627 127.5,78.5C 125.302,77.8347 122.969,77.1681 120.5,76.5C 120.709,75.914 121.043,75.414 121.5,75C 123.473,74.5045 125.473,74.3379 127.5,74.5C 129.186,76.1475 130.853,76.3141 132.5,75C 129.881,72.7435 129.881,70.5768 132.5,68.5C 134.87,73.8251 136.203,73.4918 136.5,67.5C 137.5,67.5 138.5,67.5 139.5,67.5C 139.785,65.712 139.452,64.0453 138.5,62.5C 137.313,63.8938 136.646,63.7271 136.5,62C 138.059,59.8314 138.392,57.6648 137.5,55.5C 138.973,56.7401 140.64,57.7401 142.5,58.5C 143.281,57.2713 143.781,55.938 144,54.5C 146.952,53.3822 149.119,51.3822 150.5,48.5C 151.795,47.9017 153.128,47.4017 154.5,47C 155.219,44.4438 156.886,43.2771 159.5,43.5C 159.351,42.448 159.517,41.448 160,40.5C 164.954,36.5445 169.454,32.2112 173.5,27.5 Z"/></g>
<g><path style="opacity:1" fill="#7676d6" d="M 95.5,44.5 C 106.552,43.8572 117.219,44.5238 127.5,46.5C 116.735,45.8546 106.068,45.1879 95.5,44.5 Z"/></g>
<g><path style="opacity:1" fill="#718ad5" d="M 62.5,47.5 C 61.9213,50.3311 60.588,52.6644 58.5,54.5C 59.108,51.5938 60.4413,49.2604 62.5,47.5 Z"/></g>
<g><path style="opacity:1" fill="#986cfc" d="M 173.5,53.5 C 173.5,60.1667 173.5,66.8333 173.5,73.5C 169.013,76.4881 165.347,80.3214 162.5,85C 161.552,85.4828 160.552,85.6495 159.5,85.5C 159.617,87.4835 158.95,89.1502 157.5,90.5C 158.167,91.5 158.833,92.5 159.5,93.5C 156.956,95.3918 156.956,97.2252 159.5,99C 158.5,99.3333 157.5,99.6667 156.5,100C 158.824,101.162 161.158,102.329 163.5,103.5C 162.5,105.833 160.833,107.5 158.5,108.5C 157.614,109.325 157.281,110.325 157.5,111.5C 152.92,110.586 149.92,107.919 148.5,103.5C 146.946,102.086 145.612,100.419 144.5,98.5C 145.523,96.1052 144.523,95.1052 141.5,95.5C 140.688,93.0554 139.688,90.7221 138.5,88.5C 140.783,85.2027 143.116,81.8694 145.5,78.5C 146.833,77.8333 148.167,77.1667 149.5,76.5C 151.806,73.5271 154.473,70.8605 157.5,68.5C 158.631,65.7447 160.298,63.4114 162.5,61.5C 163.429,60.3112 163.762,58.9778 163.5,57.5C 166.833,56.1667 170.167,54.8333 173.5,53.5 Z"/></g>
<g><path style="opacity:1" fill="#617cda" d="M 58.5,55.5 C 57.9717,56.7206 57.305,57.8873 56.5,59C 59.093,63.4096 61.4263,67.9096 63.5,72.5C 61.9582,71.6993 60.2915,71.366 58.5,71.5C 59.5,74.1667 60.5,76.8333 61.5,79.5C 57.9406,75.428 54.9406,70.928 52.5,66C 47.5,65.3333 42.5,65.3333 37.5,66C 34.2359,70.1086 31.5693,74.6086 29.5,79.5C 30.7878,81.7388 31.7878,84.0721 32.5,86.5C 29.3812,84.8958 27.7145,82.2291 27.5,78.5C 29.9787,74.2165 32.4787,69.8832 35,65.5C 41.831,64.9002 48.6643,64.0669 55.5,63C 55.7375,60.7116 55.7375,58.2116 55.5,55.5C 56.5,55.5 57.5,55.5 58.5,55.5 Z"/></g>
<g><path style="opacity:1" fill="#8a81cc" d="M 131.5,54.5 C 132.5,54.5 133.5,54.5 134.5,54.5C 134.665,57.5184 134.498,60.5184 134,63.5C 131.152,66.4905 128.985,69.8239 127.5,73.5C 127.5,72.8333 127.5,72.1667 127.5,71.5C 129.492,67.5168 131.492,63.5168 133.5,59.5C 133.098,57.6998 132.431,56.0332 131.5,54.5 Z"/></g>
<g><path style="opacity:1" fill="#f9fafc" d="M 61.5,79.5 C 68.1008,92.6923 75.2675,105.692 83,118.5C 83.322,120.689 82.822,122.689 81.5,124.5C 79.5,127.167 77.5,129.833 75.5,132.5C 64.7819,132.787 54.1152,132.454 43.5,131.5C 41.4374,128.382 39.604,125.048 38,121.5C 37.5099,119.455 37.6765,117.455 38.5,115.5C 40.7247,112.738 42.7247,109.738 44.5,106.5C 42.5601,101.6 39.8934,97.267 36.5,93.5C 35.9213,90.6689 34.588,88.3356 32.5,86.5C 31.7878,84.0721 30.7878,81.7388 29.5,79.5C 31.5693,74.6086 34.2359,70.1086 37.5,66C 42.5,65.3333 47.5,65.3333 52.5,66C 54.9406,70.928 57.9406,75.428 61.5,79.5 Z"/></g>
<g><path style="opacity:1" fill="#9494be" d="M 127.5,71.5 C 127.5,72.1667 127.5,72.8333 127.5,73.5C 105.993,73.8306 84.6601,73.4973 63.5,72.5C 79.8333,72.5 96.1667,72.5 112.5,72.5C 117.595,72.7787 122.595,72.4454 127.5,71.5 Z"/></g>
<g><path style="opacity:1" fill="#7272f7" d="M 63.5,72.5 C 84.6601,73.4973 105.993,73.8306 127.5,73.5C 127.5,73.8333 127.5,74.1667 127.5,74.5C 125.473,74.3379 123.473,74.5045 121.5,75C 121.043,75.414 120.709,75.914 120.5,76.5C 122.969,77.1681 125.302,77.8347 127.5,78.5C 122.821,78.3342 118.155,78.5008 113.5,79C 110.772,82.3042 108.439,85.8042 106.5,89.5C 106.192,87.076 106.526,84.7427 107.5,82.5C 108.973,80.6053 110.64,78.9387 112.5,77.5C 112.192,76.6919 111.692,76.0253 111,75.5C 108.036,75.6664 104.869,76.1664 101.5,77C 102.328,77.9147 103.328,78.5814 104.5,79C 103.523,81.6024 102.356,84.1024 101,86.5C 97.6454,86.2476 95.312,84.5809 94,81.5C 92.8333,83 91.6667,84.5 90.5,86C 89.5509,86.6172 88.7175,86.4506 88,85.5C 89.1982,88.2699 89.5316,91.2699 89,94.5C 86.8302,97.5098 84.6635,100.51 82.5,103.5C 81.4679,101.96 80.1346,101.46 78.5,102C 80.1554,103.444 80.822,105.278 80.5,107.5C 76.0783,105.443 74.4117,102.109 75.5,97.5C 73.6071,95.0476 72.2737,92.3809 71.5,89.5C 70.5,89.5 69.5,89.5 68.5,89.5C 67.6897,87.2017 66.8564,84.8684 66,82.5C 65.6667,82.8333 65.3333,83.1667 65,83.5C 64.34,81.6763 63.1733,80.343 61.5,79.5C 60.5,76.8333 59.5,74.1667 58.5,71.5C 60.2915,71.366 61.9582,71.6993 63.5,72.5 Z"/></g>
<g><path style="opacity:1" fill="#fbfbfc" d="M 130.5,79.5 C 135.335,87.838 140.169,96.1714 145,104.5C 145.6,107.095 145.1,109.429 143.5,111.5C 141.347,113.794 139.68,116.46 138.5,119.5C 133.156,119.334 127.823,119.501 122.5,120C 121.748,120.671 121.414,121.504 121.5,122.5C 118.597,126.63 115.93,130.963 113.5,135.5C 109.049,136.739 106.716,139.739 106.5,144.5C 101.869,145.662 97.202,145.828 92.5,145C 88.0762,140.001 86.4095,134.168 87.5,127.5C 88.7206,126.972 89.8873,126.305 91,125.5C 93.4991,121.846 94.9991,117.846 95.5,113.5C 95.5,112.833 95.5,112.167 95.5,111.5C 102.103,101.232 108.436,90.7322 114.5,80C 119.823,79.5006 125.156,79.334 130.5,79.5 Z"/></g>
<g><path style="opacity:1" fill="#7d70f9" d="M 106.5,89.5 C 102.837,96.8162 99.1699,104.15 95.5,111.5C 94.1301,111.856 93.1301,112.69 92.5,114C 89.1564,120.355 85.823,126.688 82.5,133C 82.6842,134.376 83.3509,135.209 84.5,135.5C 85.1667,138.833 85.8333,142.167 86.5,145.5C 83.2697,141.876 81.2697,137.543 80.5,132.5C 79.5832,133.127 78.5832,133.461 77.5,133.5C 78.5804,131.004 79.9138,128.67 81.5,126.5C 83.9223,125.308 84.9223,123.308 84.5,120.5C 82.9013,116.289 81.568,111.955 80.5,107.5C 80.822,105.278 80.1554,103.444 78.5,102C 80.1346,101.46 81.4679,101.96 82.5,103.5C 84.6635,100.51 86.8302,97.5098 89,94.5C 89.5316,91.2699 89.1982,88.2699 88,85.5C 88.7175,86.4506 89.5509,86.6172 90.5,86C 91.6667,84.5 92.8333,83 94,81.5C 95.312,84.5809 97.6454,86.2476 101,86.5C 102.356,84.1024 103.523,81.6024 104.5,79C 103.328,78.5814 102.328,77.9147 101.5,77C 104.869,76.1664 108.036,75.6664 111,75.5C 111.692,76.0253 112.192,76.6919 112.5,77.5C 110.64,78.9387 108.973,80.6053 107.5,82.5C 106.526,84.7427 106.192,87.076 106.5,89.5 Z"/></g>
<g><path style="opacity:1" fill="#9478da" d="M 130.5,79.5 C 131.735,79.7214 132.735,80.3881 133.5,81.5C 134.086,81.2907 134.586,80.9574 135,80.5C 134.481,83.7436 135.648,86.4103 138.5,88.5C 139.688,90.7221 140.688,93.0554 141.5,95.5C 142.9,98.1766 144.4,100.843 146,103.5C 146.497,106.146 146.664,108.813 146.5,111.5C 145.5,111.5 144.5,111.5 143.5,111.5C 145.1,109.429 145.6,107.095 145,104.5C 140.169,96.1714 135.335,87.838 130.5,79.5 Z"/></g>
<g><path style="opacity:1" fill="#7877e0" d="M 61.5,79.5 C 63.1733,80.343 64.34,81.6763 65,83.5C 65.3333,83.1667 65.6667,82.8333 66,82.5C 66.8564,84.8684 67.6897,87.2017 68.5,89.5C 69.5,89.5 70.5,89.5 71.5,89.5C 72.2737,92.3809 73.6071,95.0476 75.5,97.5C 74.4117,102.109 76.0783,105.443 80.5,107.5C 81.568,111.955 82.9013,116.289 84.5,120.5C 84.9223,123.308 83.9223,125.308 81.5,126.5C 81.5,125.833 81.5,125.167 81.5,124.5C 82.822,122.689 83.322,120.689 83,118.5C 75.2675,105.692 68.1008,92.6923 61.5,79.5 Z"/></g>
<g><path style="opacity:1" fill="#5f74fd" d="M 30.5,95.5 C 32.8178,96.7092 35.1511,98.0426 37.5,99.5C 39.8942,101.332 40.8942,103.832 40.5,107C 40.664,109.544 39.9973,111.71 38.5,113.5C 36.9382,113.733 35.6049,114.4 34.5,115.5C 33.791,114.596 32.791,114.263 31.5,114.5C 31.8283,116.391 32.495,117.891 33.5,119C 33.1667,119.833 32.8333,120.667 32.5,121.5C 30.7091,119.979 29.3758,118.146 28.5,116C 27.365,115.251 26.365,115.417 25.5,116.5C 25.1797,118.578 24.1797,120.744 22.5,123C 22.8333,123.333 23.1667,123.667 23.5,124C 22.3333,125.167 21.1667,126.333 20,127.5C 18.8469,125.503 17.3469,125.17 15.5,126.5C 16.7684,131.608 14.7684,134.941 9.5,136.5C 8.13109,140.246 5.63109,142.912 2,144.5C 2.67713,148.071 3.51046,151.738 4.5,155.5C 3.07797,154.075 1.4113,153.075 -0.5,152.5C -0.5,142.167 -0.5,131.833 -0.5,121.5C 1.60395,121.799 3.60395,121.466 5.5,120.5C 8.16667,117.833 10.8333,115.167 13.5,112.5C 12.8333,111.833 12.1667,111.167 11.5,110.5C 17.7121,105.242 24.0455,100.242 30.5,95.5 Z"/></g>
<g><path style="opacity:1" fill="#707ad7" d="M 36.5,93.5 C 39.8934,97.267 42.5601,101.6 44.5,106.5C 42.7247,109.738 40.7247,112.738 38.5,115.5C 38.5,114.833 38.5,114.167 38.5,113.5C 39.9973,111.71 40.664,109.544 40.5,107C 40.8942,103.832 39.8942,101.332 37.5,99.5C 36.8505,97.5648 36.5172,95.5648 36.5,93.5 Z"/></g>
<g><path style="opacity:1" fill="#877bd4" d="M 127.5,78.5 C 128.791,78.2627 129.791,78.596 130.5,79.5C 125.156,79.334 119.823,79.5006 114.5,80C 108.436,90.7322 102.103,101.232 95.5,111.5C 99.1699,104.15 102.837,96.8162 106.5,89.5C 108.439,85.8042 110.772,82.3042 113.5,79C 118.155,78.5008 122.821,78.3342 127.5,78.5 Z"/></g>
<g><path style="opacity:1" fill="#5277fc" d="M 30.5,95.5 C 24.0455,100.242 17.7121,105.242 11.5,110.5C 12.1667,111.167 12.8333,111.833 13.5,112.5C 10.8333,115.167 8.16667,117.833 5.5,120.5C 3.60395,121.466 1.60395,121.799 -0.5,121.5C -0.5,115.5 -0.5,109.5 -0.5,103.5C 1.4835,103.617 3.15017,102.95 4.5,101.5C 8.86793,97.467 12.8679,93.1337 16.5,88.5C 17.8333,87.8333 19.1667,87.1667 20.5,86.5C 22.1693,87.6709 23.6693,89.0042 25,90.5C 31.5877,88.0209 33.421,89.6876 30.5,95.5 Z"/></g>
<g><path style="opacity:1" fill="#7a80d2" d="M 38.5,115.5 C 37.6765,117.455 37.5099,119.455 38,121.5C 39.604,125.048 41.4374,128.382 43.5,131.5C 37.04,127.333 35.3733,121.999 38.5,115.5 Z"/></g>
<g><path style="opacity:1" fill="#eee8fd" d="M 95.5,113.5 C 94.9991,117.846 93.4991,121.846 91,125.5C 89.8873,126.305 88.7206,126.972 87.5,127.5C 89.6643,122.5 92.331,117.833 95.5,113.5 Z"/></g>
<g><path style="opacity:1" fill="#b59ce6" d="M 138.5,119.5 C 133.5,120.167 128.5,120.833 123.5,121.5C 122.833,121.833 122.167,122.167 121.5,122.5C 121.414,121.504 121.748,120.671 122.5,120C 127.823,119.501 133.156,119.334 138.5,119.5 Z"/></g>
<g><path style="opacity:1" fill="#af68fc" d="M 173.5,102.5 C 173.5,110.833 173.5,119.167 173.5,127.5C 168.5,126.5 166.5,128.5 167.5,133.5C 166.167,133.5 164.833,133.5 163.5,133.5C 162.973,136.231 162.14,138.898 161,141.5C 159.174,143.074 157.007,143.907 154.5,144C 153.663,145.011 153.33,146.178 153.5,147.5C 152.5,147.5 151.5,147.5 150.5,147.5C 150.5,148.833 150.5,150.167 150.5,151.5C 145.733,151.351 143.4,153.684 143.5,158.5C 139.974,158.99 136.807,159.657 134,160.5C 133.788,162.78 132.955,164.78 131.5,166.5C 132.053,168.727 132.053,171.061 131.5,173.5C 125.167,173.5 118.833,173.5 112.5,173.5C 114.393,169.926 116.727,166.593 119.5,163.5C 117.644,160.964 117.311,158.298 118.5,155.5C 124.576,150.095 129.909,144.095 134.5,137.5C 136.809,135.013 139.476,133.013 142.5,131.5C 143.429,130.311 143.762,128.978 143.5,127.5C 144.833,127.5 146.167,127.5 147.5,127.5C 149.787,122.312 152.454,117.312 155.5,112.5C 158.127,111.908 160.794,111.575 163.5,111.5C 164.428,108.87 165.428,106.204 166.5,103.5C 168.747,102.626 171.08,102.292 173.5,102.5 Z"/></g>
<g><path style="opacity:1" fill="#9874d9" d="M 143.5,111.5 C 142.87,114.582 141.87,117.582 140.5,120.5C 134.896,121.454 129.229,121.788 123.5,121.5C 128.5,120.833 133.5,120.167 138.5,119.5C 139.68,116.46 141.347,113.794 143.5,111.5 Z"/></g>
<g><path style="opacity:1" fill="#6b72fd" d="M 34.5,115.5 C 34.5,119.167 34.5,122.833 34.5,126.5C 33.5,126.5 32.5,126.5 31.5,126.5C 31.7863,128.277 32.4529,129.944 33.5,131.5C 32.5,133.5 31.5,135.5 30.5,137.5C 26.1105,141.317 22.4438,145.65 19.5,150.5C 18.3112,151.429 16.9778,151.762 15.5,151.5C 16.578,158.065 13.9114,160.232 7.5,158C 6.30943,157.302 5.30943,156.469 4.5,155.5C 3.51046,151.738 2.67713,148.071 2,144.5C 5.63109,142.912 8.13109,140.246 9.5,136.5C 14.7684,134.941 16.7684,131.608 15.5,126.5C 17.3469,125.17 18.8469,125.503 20,127.5C 21.1667,126.333 22.3333,125.167 23.5,124C 23.1667,123.667 22.8333,123.333 22.5,123C 24.1797,120.744 25.1797,118.578 25.5,116.5C 26.365,115.417 27.365,115.251 28.5,116C 29.3758,118.146 30.7091,119.979 32.5,121.5C 32.8333,120.667 33.1667,119.833 33.5,119C 32.495,117.891 31.8283,116.391 31.5,114.5C 32.791,114.263 33.791,114.596 34.5,115.5 Z"/></g>
<g><path style="opacity:1" fill="#8e7dda" d="M 95.5,111.5 C 95.5,112.167 95.5,112.833 95.5,113.5C 92.331,117.833 89.6643,122.5 87.5,127.5C 85.0181,129.503 84.0181,132.169 84.5,135.5C 83.3509,135.209 82.6842,134.376 82.5,133C 85.823,126.688 89.1564,120.355 92.5,114C 93.1301,112.69 94.1301,111.856 95.5,111.5 Z"/></g>
<g><path style="opacity:1" fill="#9e6cf8" d="M 141.5,95.5 C 144.523,95.1052 145.523,96.1052 144.5,98.5C 145.612,100.419 146.946,102.086 148.5,103.5C 148.496,107.254 148.663,110.921 149,114.5C 147.559,115.87 145.892,116.87 144,117.5C 143.689,119.556 143.189,121.556 142.5,123.5C 139.938,124.641 137.272,125.474 134.5,126C 134.833,126.333 135.167,126.667 135.5,127C 132.333,129.833 129.167,132.667 126,135.5C 125.383,138.035 125.883,140.368 127.5,142.5C 126.132,143.594 124.965,143.26 124,141.5C 122.509,143.004 120.676,143.837 118.5,144C 118.833,144.333 119.167,144.667 119.5,145C 117.893,146.049 117.227,147.549 117.5,149.5C 115.549,149.227 114.049,149.893 113,151.5C 112.667,150.833 112.333,150.167 112,149.5C 111.326,150.578 110.326,151.245 109,151.5C 104.205,150.642 99.3719,150.309 94.5,150.5C 93.1667,150.5 92.5,149.833 92.5,148.5C 97.3633,148.819 102.03,148.486 106.5,147.5C 106.5,146.833 106.833,146.5 107.5,146.5C 110.521,143.794 112.521,140.461 113.5,136.5C 115.328,135.206 117.328,134.206 119.5,133.5C 119.691,129.738 120.358,126.071 121.5,122.5C 122.167,122.167 122.833,121.833 123.5,121.5C 129.229,121.788 134.896,121.454 140.5,120.5C 141.87,117.582 142.87,114.582 143.5,111.5C 144.5,111.5 145.5,111.5 146.5,111.5C 146.664,108.813 146.497,106.146 146,103.5C 144.4,100.843 142.9,98.1766 141.5,95.5 Z"/></g>
<g><path style="opacity:1" fill="#9a7ad5" d="M 121.5,122.5 C 120.358,126.071 119.691,129.738 119.5,133.5C 117.328,134.206 115.328,135.206 113.5,136.5C 113.5,136.167 113.5,135.833 113.5,135.5C 115.93,130.963 118.597,126.63 121.5,122.5 Z"/></g>
<g><path style="opacity:1" fill="#ded9f8" d="M 43.5,131.5 C 54.1152,132.454 64.7819,132.787 75.5,132.5C 65.6806,133.494 55.6806,133.827 45.5,133.5C 44.5,133.167 43.8333,132.5 43.5,131.5 Z"/></g>
<g><path style="opacity:1" fill="#8578c7" d="M 81.5,124.5 C 81.5,125.167 81.5,125.833 81.5,126.5C 79.9138,128.67 78.5804,131.004 77.5,133.5C 77.5,134.167 77.1667,134.5 76.5,134.5C 65.9865,134.828 55.6532,134.494 45.5,133.5C 55.6806,133.827 65.6806,133.494 75.5,132.5C 77.5,129.833 79.5,127.167 81.5,124.5 Z"/></g>
<g><path style="opacity:1" fill="#7472f8" d="M 38.5,113.5 C 38.5,114.167 38.5,114.833 38.5,115.5C 35.3733,121.999 37.04,127.333 43.5,131.5C 43.8333,132.5 44.5,133.167 45.5,133.5C 55.6532,134.494 65.9865,134.828 76.5,134.5C 74.7354,135.461 72.7354,135.795 70.5,135.5C 66.1467,135.765 61.8134,136.265 57.5,137C 54.8795,140.159 52.0462,142.326 49,143.5C 46.9547,142.027 44.788,140.693 42.5,139.5C 40.9707,139.529 39.804,140.196 39,141.5C 37.5341,139.675 35.7008,139.175 33.5,140C 34.9606,141.351 36.294,142.851 37.5,144.5C 34.4983,147.003 31.1649,149.003 27.5,150.5C 24.2177,152.758 22.2177,155.758 21.5,159.5C 18.5112,160.083 15.8445,161.416 13.5,163.5C 12.914,163.291 12.414,162.957 12,162.5C 11.51,163.793 11.3433,165.127 11.5,166.5C 7.12206,164.124 4.78872,160.458 4.5,155.5C 5.30943,156.469 6.30943,157.302 7.5,158C 13.9114,160.232 16.578,158.065 15.5,151.5C 16.9778,151.762 18.3112,151.429 19.5,150.5C 22.4438,145.65 26.1105,141.317 30.5,137.5C 31.5,135.5 32.5,133.5 33.5,131.5C 32.4529,129.944 31.7863,128.277 31.5,126.5C 32.5,126.5 33.5,126.5 34.5,126.5C 34.5,122.833 34.5,119.167 34.5,115.5C 35.6049,114.4 36.9382,113.733 38.5,113.5 Z"/></g>
<g><path style="opacity:1" fill="#eee3f5" d="M 87.5,127.5 C 86.4095,134.168 88.0762,140.001 92.5,145C 97.202,145.828 101.869,145.662 106.5,144.5C 106.716,139.739 109.049,136.739 113.5,135.5C 113.5,135.833 113.5,136.167 113.5,136.5C 111,139.494 109,142.827 107.5,146.5C 106.833,146.5 106.5,146.833 106.5,147.5C 101.821,147.666 97.1548,147.499 92.5,147C 89.6877,143.188 87.021,139.354 84.5,135.5C 84.0181,132.169 85.0181,129.503 87.5,127.5 Z"/></g>
<g><path style="opacity:1" fill="#906cfe" d="M 86.5,145.5 C 86.2504,146.922 85.417,147.922 84,148.5C 84.0534,150.936 83.8867,153.269 83.5,155.5C 81.2011,156.635 79.0344,157.968 77,159.5C 73.9999,159.16 70.9999,159.827 68,161.5C 66.1652,165.457 64.6652,169.457 63.5,173.5C 56.1667,173.5 48.8333,173.5 41.5,173.5C 42.1667,170.833 42.8333,168.167 43.5,165.5C 47.0681,165.241 48.4015,163.241 47.5,159.5C 50.2706,159.579 52.9373,159.079 55.5,158C 58.4783,153.849 60.8117,149.349 62.5,144.5C 65.6683,143.872 68.6683,142.872 71.5,141.5C 74.4904,142.746 75.157,141.746 73.5,138.5C 72.2054,137.902 70.8721,137.402 69.5,137C 70.056,136.617 70.3893,136.117 70.5,135.5C 72.7354,135.795 74.7354,135.461 76.5,134.5C 77.1667,134.5 77.5,134.167 77.5,133.5C 78.5832,133.461 79.5832,133.127 80.5,132.5C 81.2697,137.543 83.2697,141.876 86.5,145.5 Z"/></g>
<g><path style="opacity:1" fill="#9e86c4" d="M 113.5,136.5 C 112.521,140.461 110.521,143.794 107.5,146.5C 109,142.827 111,139.494 113.5,136.5 Z"/></g>
<g><path style="opacity:1" fill="#a46afd" d="M 173.5,73.5 C 173.5,83.1667 173.5,92.8333 173.5,102.5C 171.08,102.292 168.747,102.626 166.5,103.5C 165.428,106.204 164.428,108.87 163.5,111.5C 160.794,111.575 158.127,111.908 155.5,112.5C 152.454,117.312 149.787,122.312 147.5,127.5C 146.167,127.5 144.833,127.5 143.5,127.5C 143.762,128.978 143.429,130.311 142.5,131.5C 139.476,133.013 136.809,135.013 134.5,137.5C 129.909,144.095 124.576,150.095 118.5,155.5C 117.311,158.298 117.644,160.964 119.5,163.5C 116.727,166.593 114.393,169.926 112.5,173.5C 103.5,173.5 94.5,173.5 85.5,173.5C 87.8009,166.54 91.8009,160.873 97.5,156.5C 94.972,155.184 94.972,154.017 97.5,153C 96.0577,152.623 95.0577,151.79 94.5,150.5C 99.3719,150.309 104.205,150.642 109,151.5C 110.326,151.245 111.326,150.578 112,149.5C 112.333,150.167 112.667,150.833 113,151.5C 114.049,149.893 115.549,149.227 117.5,149.5C 117.227,147.549 117.893,146.049 119.5,145C 119.167,144.667 118.833,144.333 118.5,144C 120.676,143.837 122.509,143.004 124,141.5C 124.965,143.26 126.132,143.594 127.5,142.5C 125.883,140.368 125.383,138.035 126,135.5C 129.167,132.667 132.333,129.833 135.5,127C 135.167,126.667 134.833,126.333 134.5,126C 137.272,125.474 139.938,124.641 142.5,123.5C 143.189,121.556 143.689,119.556 144,117.5C 145.892,116.87 147.559,115.87 149,114.5C 148.663,110.921 148.496,107.254 148.5,103.5C 149.92,107.919 152.92,110.586 157.5,111.5C 157.281,110.325 157.614,109.325 158.5,108.5C 160.833,107.5 162.5,105.833 163.5,103.5C 161.158,102.329 158.824,101.162 156.5,100C 157.5,99.6667 158.5,99.3333 159.5,99C 156.956,97.2252 156.956,95.3918 159.5,93.5C 158.833,92.5 158.167,91.5 157.5,90.5C 158.95,89.1502 159.617,87.4835 159.5,85.5C 160.552,85.6495 161.552,85.4828 162.5,85C 165.347,80.3214 169.013,76.4881 173.5,73.5 Z"/></g>
<g><path style="opacity:1" fill="#bc66fb" d="M 173.5,127.5 C 173.5,136.5 173.5,145.5 173.5,154.5C 171.064,154.317 168.897,154.984 167,156.5C 168.056,161.942 165.89,164.275 160.5,163.5C 159.522,163.977 158.689,164.643 158,165.5C 157.692,164.692 157.192,164.025 156.5,163.5C 153.942,166.431 152.276,169.765 151.5,173.5C 144.833,173.5 138.167,173.5 131.5,173.5C 132.053,171.061 132.053,168.727 131.5,166.5C 132.955,164.78 133.788,162.78 134,160.5C 136.807,159.657 139.974,158.99 143.5,158.5C 143.4,153.684 145.733,151.351 150.5,151.5C 150.5,150.167 150.5,148.833 150.5,147.5C 151.5,147.5 152.5,147.5 153.5,147.5C 153.33,146.178 153.663,145.011 154.5,144C 157.007,143.907 159.174,143.074 161,141.5C 162.14,138.898 162.973,136.231 163.5,133.5C 164.833,133.5 166.167,133.5 167.5,133.5C 166.5,128.5 168.5,126.5 173.5,127.5 Z"/></g>
<g><path style="opacity:1" fill="#8070fc" d="M 70.5,135.5 C 70.3893,136.117 70.056,136.617 69.5,137C 70.8721,137.402 72.2054,137.902 73.5,138.5C 75.157,141.746 74.4904,142.746 71.5,141.5C 68.6683,142.872 65.6683,143.872 62.5,144.5C 60.8117,149.349 58.4783,153.849 55.5,158C 52.9373,159.079 50.2706,159.579 47.5,159.5C 48.4015,163.241 47.0681,165.241 43.5,165.5C 42.8333,168.167 42.1667,170.833 41.5,173.5C 32.8333,173.5 24.1667,173.5 15.5,173.5C 15.0387,170.697 13.7053,168.363 11.5,166.5C 11.3433,165.127 11.51,163.793 12,162.5C 12.414,162.957 12.914,163.291 13.5,163.5C 15.8445,161.416 18.5112,160.083 21.5,159.5C 22.2177,155.758 24.2177,152.758 27.5,150.5C 31.1649,149.003 34.4983,147.003 37.5,144.5C 36.294,142.851 34.9606,141.351 33.5,140C 35.7008,139.175 37.5341,139.675 39,141.5C 39.804,140.196 40.9707,139.529 42.5,139.5C 44.788,140.693 46.9547,142.027 49,143.5C 52.0462,142.326 54.8795,140.159 57.5,137C 61.8134,136.265 66.1467,135.765 70.5,135.5 Z"/></g>
<g><path style="opacity:1" fill="#9376d7" d="M 84.5,135.5 C 87.021,139.354 89.6877,143.188 92.5,147C 97.1548,147.499 101.821,147.666 106.5,147.5C 102.03,148.486 97.3633,148.819 92.5,148.5C 90.0532,148.385 88.0532,147.385 86.5,145.5C 85.8333,142.167 85.1667,138.833 84.5,135.5 Z"/></g>
<g><path style="opacity:1" fill="#996bfd" d="M 86.5,145.5 C 88.0532,147.385 90.0532,148.385 92.5,148.5C 92.5,149.833 93.1667,150.5 94.5,150.5C 95.0577,151.79 96.0577,152.623 97.5,153C 94.972,154.017 94.972,155.184 97.5,156.5C 91.8009,160.873 87.8009,166.54 85.5,173.5C 78.1667,173.5 70.8333,173.5 63.5,173.5C 64.6652,169.457 66.1652,165.457 68,161.5C 70.9999,159.827 73.9999,159.16 77,159.5C 79.0344,157.968 81.2011,156.635 83.5,155.5C 83.8867,153.269 84.0534,150.936 84,148.5C 85.417,147.922 86.2504,146.922 86.5,145.5 Z"/></g>
<g><path style="opacity:1" fill="#7c79cf" d="M -0.5,152.5 C 1.4113,153.075 3.07797,154.075 4.5,155.5C 4.78872,160.458 7.12206,164.124 11.5,166.5C 13.7053,168.363 15.0387,170.697 15.5,173.5C 15.1667,173.5 14.8333,173.5 14.5,173.5C 14.4894,171.983 13.8228,170.816 12.5,170C 10.1523,169.654 8.31892,168.487 7,166.5C 5.36628,163.52 3.69962,160.52 2,157.5C 1.32924,156.748 0.495904,156.414 -0.5,156.5C -0.5,155.167 -0.5,153.833 -0.5,152.5 Z"/></g>
<g><path style="opacity:1" fill="#ae7cc8" d="M 173.5,159.5 C 173.5,160.167 173.5,160.833 173.5,161.5C 170.167,161.5 168.5,163.167 168.5,166.5C 166.5,167.833 164.5,169.167 162.5,170.5C 164.832,168.308 166.665,165.641 168,162.5C 169.488,160.84 171.321,159.84 173.5,159.5 Z"/></g>
<g><path style="opacity:1" fill="#be6af2" d="M 173.5,154.5 C 173.5,156.167 173.5,157.833 173.5,159.5C 171.321,159.84 169.488,160.84 168,162.5C 166.665,165.641 164.832,168.308 162.5,170.5C 161.094,170.973 160.427,171.973 160.5,173.5C 157.5,173.5 154.5,173.5 151.5,173.5C 152.276,169.765 153.942,166.431 156.5,163.5C 157.192,164.025 157.692,164.692 158,165.5C 158.689,164.643 159.522,163.977 160.5,163.5C 165.89,164.275 168.056,161.942 167,156.5C 168.897,154.984 171.064,154.317 173.5,154.5 Z"/></g>
<g><path style="opacity:1" fill="#9291ad" d="M -0.5,156.5 C 0.495904,156.414 1.32924,156.748 2,157.5C 3.69962,160.52 5.36628,163.52 7,166.5C 8.31892,168.487 10.1523,169.654 12.5,170C 13.8228,170.816 14.4894,171.983 14.5,173.5C 13.1667,173.5 11.8333,173.5 10.5,173.5C 6.47883,168.804 2.81217,163.804 -0.5,158.5C -0.5,157.833 -0.5,157.167 -0.5,156.5 Z"/></g>
<g><path style="opacity:1" fill="#a984af" d="M 168.5,166.5 C 167.7,168.573 166.367,170.24 164.5,171.5C 163.167,171.5 162.5,172.167 162.5,173.5C 161.833,173.5 161.167,173.5 160.5,173.5C 160.427,171.973 161.094,170.973 162.5,170.5C 164.5,169.167 166.5,167.833 168.5,166.5 Z"/></g>
<g><path style="opacity:1" fill="#a28b9b" d="M 173.5,161.5 C 173.5,162.833 173.5,164.167 173.5,165.5C 171.091,168.217 168.091,170.217 164.5,171.5C 166.367,170.24 167.7,168.573 168.5,166.5C 168.5,163.167 170.167,161.5 173.5,161.5 Z"/></g>
<g><path style="opacity:1" fill="#95968e" d="M -0.5,158.5 C 2.81217,163.804 6.47883,168.804 10.5,173.5C 6.83333,173.5 3.16667,173.5 -0.5,173.5C -0.5,168.5 -0.5,163.5 -0.5,158.5 Z"/></g>
<g><path style="opacity:1" fill="#9a948c" d="M 173.5,165.5 C 173.5,168.167 173.5,170.833 173.5,173.5C 169.833,173.5 166.167,173.5 162.5,173.5C 162.5,172.167 163.167,171.5 164.5,171.5C 168.091,170.217 171.091,168.217 173.5,165.5 Z"/></g>
</svg>
